G04 #@! TF.FileFunction,Legend,Bot*
%FSLAX46Y46*%
G04 Gerber Fmt 4.6, Leading zero omitted, Abs format (unit mm)*
G04 Created by KiCad (PCBNEW 4.0.7) date 12/19/17 20:45:30*
%MOMM*%
%LPD*%
G01*
G04 APERTURE LIST*
%ADD10C,0.100000*%
%ADD11C,0.150000*%
%ADD12C,2.398980*%
%ADD13C,2.200000*%
%ADD14R,2.000000X2.000000*%
%ADD15O,2.000000X2.000000*%
%ADD16C,2.000000*%
%ADD17R,2.400000X2.400000*%
%ADD18O,2.400000X2.400000*%
%ADD19C,1.800000*%
%ADD20O,1.800000X1.800000*%
%ADD21R,1.400000X1.400000*%
%ADD22C,1.840000*%
%ADD23R,1.250000X1.250000*%
%ADD24O,1.250000X1.250000*%
%ADD25R,2.200000X2.200000*%
%ADD26O,2.200000X2.200000*%
G04 APERTURE END LIST*
D10*
X199411228Y-89557472D02*
X199411228Y-83746180D01*
X199411228Y-83746180D02*
X198127795Y-83719849D01*
X198127795Y-83719849D02*
X198134483Y-74888627D01*
X198134483Y-74888627D02*
X199336736Y-74890603D01*
X199336736Y-74890603D02*
X199310658Y-65809807D01*
X199310658Y-65809807D02*
X168140507Y-65823805D01*
X168140507Y-65823805D02*
X167537714Y-66056616D01*
X167537714Y-66056616D02*
X166992833Y-66340099D01*
X166992833Y-66340099D02*
X166506423Y-66674747D01*
X166506423Y-66674747D02*
X166079048Y-67061047D01*
X166079048Y-67061047D02*
X165711259Y-67499488D01*
X165711259Y-67499488D02*
X165403623Y-67990560D01*
X165403623Y-67990560D02*
X165156690Y-68534750D01*
X165156690Y-68534750D02*
X164971024Y-69132547D01*
X164971024Y-69132547D02*
X164942266Y-88170460D01*
X164942266Y-88170460D02*
X165176259Y-88789824D01*
X165176259Y-88789824D02*
X165460742Y-89378018D01*
X165460742Y-89378018D02*
X165810257Y-89921445D01*
X165810257Y-89921445D02*
X166239342Y-90406503D01*
X166239342Y-90406503D02*
X166762540Y-90819595D01*
X166762540Y-90819595D02*
X167394387Y-91147122D01*
X167394387Y-91147122D02*
X168149425Y-91375482D01*
X168149425Y-91375482D02*
X169042193Y-91491078D01*
X169042193Y-91491078D02*
X191597285Y-91516026D01*
X191597285Y-91516026D02*
X192558181Y-89572480D01*
X192558181Y-89572480D02*
X199366524Y-89542686D01*
X193185451Y-75560350D02*
X193185451Y-82699931D01*
X193185451Y-82699931D02*
X198999188Y-82699931D01*
X198999188Y-82699931D02*
X198999188Y-75560350D01*
X198999188Y-75560350D02*
X193185451Y-75560350D01*
X192536349Y-89483600D02*
X192536349Y-87931378D01*
X192536349Y-87931378D02*
X193065515Y-87402211D01*
X193065515Y-87402211D02*
X193065515Y-86149850D01*
X193065515Y-86149850D02*
X198127876Y-86149850D01*
X198127876Y-86149850D02*
X198127876Y-87437489D01*
X198127876Y-87437489D02*
X198621765Y-87966656D01*
X198621765Y-87966656D02*
X198621765Y-89536517D01*
X198621765Y-89536517D02*
X192536349Y-89483600D01*
X194617738Y-89518878D02*
X194617738Y-90171517D01*
X194617738Y-90171517D02*
X196610932Y-90171517D01*
X196610932Y-90171517D02*
X196610932Y-89554156D01*
D11*
X201396381Y-79248095D02*
X202205905Y-79248095D01*
X202301143Y-79295714D01*
X202348762Y-79343333D01*
X202396381Y-79438571D01*
X202396381Y-79629048D01*
X202348762Y-79724286D01*
X202301143Y-79771905D01*
X202205905Y-79819524D01*
X201396381Y-79819524D01*
X201396381Y-80200476D02*
X201396381Y-80819524D01*
X201777333Y-80486190D01*
X201777333Y-80629048D01*
X201824952Y-80724286D01*
X201872571Y-80771905D01*
X201967810Y-80819524D01*
X202205905Y-80819524D01*
X202301143Y-80771905D01*
X202348762Y-80724286D01*
X202396381Y-80629048D01*
X202396381Y-80343333D01*
X202348762Y-80248095D01*
X202301143Y-80200476D01*
X166251143Y-71882857D02*
X169251143Y-72597143D01*
X167108286Y-73168572D01*
X169251143Y-73740000D01*
X166251143Y-74454286D01*
X169108286Y-76740000D02*
X169251143Y-76454286D01*
X169251143Y-75882857D01*
X169108286Y-75597143D01*
X168822571Y-75454286D01*
X167679714Y-75454286D01*
X167394000Y-75597143D01*
X167251143Y-75882857D01*
X167251143Y-76454286D01*
X167394000Y-76740000D01*
X167679714Y-76882857D01*
X167965429Y-76882857D01*
X168251143Y-75454286D01*
X169251143Y-78168572D02*
X166251143Y-78168572D01*
X168394000Y-79168572D01*
X166251143Y-80168572D01*
X169251143Y-80168572D01*
X169251143Y-82025714D02*
X169108286Y-81740000D01*
X168965429Y-81597143D01*
X168679714Y-81454286D01*
X167822571Y-81454286D01*
X167536857Y-81597143D01*
X167394000Y-81740000D01*
X167251143Y-82025714D01*
X167251143Y-82454286D01*
X167394000Y-82740000D01*
X167536857Y-82882857D01*
X167822571Y-83025714D01*
X168679714Y-83025714D01*
X168965429Y-82882857D01*
X169108286Y-82740000D01*
X169251143Y-82454286D01*
X169251143Y-82025714D01*
X169108286Y-84168572D02*
X169251143Y-84454286D01*
X169251143Y-85025714D01*
X169108286Y-85311429D01*
X168822571Y-85454286D01*
X168679714Y-85454286D01*
X168394000Y-85311429D01*
X168251143Y-85025714D01*
X168251143Y-84597143D01*
X168108286Y-84311429D01*
X167822571Y-84168572D01*
X167679714Y-84168572D01*
X167394000Y-84311429D01*
X167251143Y-84597143D01*
X167251143Y-85025714D01*
X167394000Y-85311429D01*
%LPC*%
D12*
X94996000Y-57912000D03*
X97790000Y-57912000D03*
D13*
X172974000Y-67310000D03*
X175514000Y-67310000D03*
X178054000Y-67310000D03*
X180594000Y-67310000D03*
X183134000Y-67310000D03*
X185674000Y-67310000D03*
X188214000Y-67310000D03*
X190754000Y-67310000D03*
X190754000Y-90170000D03*
X188214000Y-90170000D03*
X185674000Y-90170000D03*
X183134000Y-90170000D03*
X180594000Y-90170000D03*
X178054000Y-90170000D03*
X175514000Y-90170000D03*
X172974000Y-90170000D03*
D14*
X111420000Y-76810000D03*
D15*
X119040000Y-92050000D03*
X111420000Y-79350000D03*
X119040000Y-89510000D03*
X111420000Y-81890000D03*
X119040000Y-86970000D03*
X111420000Y-84430000D03*
X119040000Y-84430000D03*
X111420000Y-86970000D03*
X119040000Y-81890000D03*
X111420000Y-89510000D03*
X119040000Y-79350000D03*
X111420000Y-92050000D03*
X119040000Y-76810000D03*
D14*
X144560000Y-75440000D03*
D15*
X152180000Y-90680000D03*
X144560000Y-77980000D03*
X152180000Y-88140000D03*
X144560000Y-80520000D03*
X152180000Y-85600000D03*
X144560000Y-83060000D03*
X152180000Y-83060000D03*
X144560000Y-85600000D03*
X152180000Y-80520000D03*
X144560000Y-88140000D03*
X152180000Y-77980000D03*
X144560000Y-90680000D03*
X152180000Y-75440000D03*
D16*
X95758000Y-94234000D03*
D15*
X105758000Y-94234000D03*
D16*
X136652000Y-73152000D03*
D15*
X126652000Y-73152000D03*
D16*
X128016000Y-68326000D03*
X123016000Y-68326000D03*
X135382000Y-81788000D03*
X130382000Y-81788000D03*
X140230000Y-75810000D03*
X140230000Y-70810000D03*
X149430000Y-70830000D03*
X144430000Y-70830000D03*
X157960000Y-70900000D03*
X152960000Y-70900000D03*
X156120000Y-84800000D03*
X156120000Y-89800000D03*
X123698000Y-71374000D03*
D15*
X123698000Y-81374000D03*
D16*
X105918000Y-81534000D03*
D15*
X105918000Y-71534000D03*
D17*
X124660000Y-94370000D03*
D18*
X129740000Y-94370000D03*
D17*
X131560000Y-90830000D03*
D18*
X136640000Y-90830000D03*
D17*
X140320000Y-78450000D03*
D18*
X140320000Y-83530000D03*
D19*
X99822000Y-90424000D03*
D20*
X99822000Y-82804000D03*
D19*
X96012000Y-90424000D03*
D20*
X96012000Y-82804000D03*
D19*
X92202000Y-90424000D03*
D20*
X92202000Y-82804000D03*
D19*
X102616000Y-97028000D03*
D20*
X110236000Y-97028000D03*
D19*
X120142000Y-97028000D03*
D20*
X112522000Y-97028000D03*
D19*
X102616000Y-81280000D03*
D20*
X102616000Y-73660000D03*
D19*
X108204000Y-85598000D03*
D20*
X108204000Y-93218000D03*
D19*
X112014000Y-65786000D03*
D20*
X112014000Y-73406000D03*
D19*
X132820000Y-95140000D03*
D20*
X140440000Y-95140000D03*
D19*
X123190000Y-84074000D03*
D20*
X123190000Y-91694000D03*
D19*
X127254000Y-89662000D03*
D20*
X127254000Y-82042000D03*
D19*
X128016000Y-77470000D03*
D20*
X135636000Y-77470000D03*
D19*
X138770000Y-87290000D03*
D20*
X131150000Y-87290000D03*
D19*
X130740000Y-68190000D03*
D20*
X138360000Y-68190000D03*
D19*
X129010000Y-98720000D03*
D20*
X136630000Y-98720000D03*
D19*
X140930000Y-68120000D03*
D20*
X148550000Y-68120000D03*
D19*
X150630000Y-68150000D03*
D20*
X158250000Y-68150000D03*
D19*
X158420000Y-82300000D03*
D20*
X158420000Y-74680000D03*
D19*
X162230000Y-74600000D03*
D20*
X162230000Y-82220000D03*
D19*
X155940000Y-82300000D03*
D20*
X155940000Y-74680000D03*
D19*
X158760000Y-84710000D03*
D20*
X158760000Y-92330000D03*
D19*
X161280000Y-92370000D03*
D20*
X161280000Y-84750000D03*
D21*
X161798000Y-62484000D03*
X157734000Y-62484000D03*
X148082000Y-62484000D03*
D22*
X102870000Y-85090000D03*
X105410000Y-87630000D03*
X102870000Y-90170000D03*
X97282000Y-74168000D03*
X99822000Y-76708000D03*
X97282000Y-79248000D03*
X119380000Y-70358000D03*
X116840000Y-67818000D03*
X119380000Y-65278000D03*
D21*
X152146000Y-62484000D03*
X129540000Y-62484000D03*
X114046000Y-62484000D03*
X138684000Y-62484000D03*
D23*
X172900000Y-63246000D03*
D24*
X175400000Y-63246000D03*
X177900000Y-63246000D03*
X180400000Y-63246000D03*
X183150000Y-63246000D03*
X185650000Y-63246000D03*
X188150000Y-63246000D03*
X190900000Y-63246000D03*
D23*
X190682000Y-92964000D03*
D24*
X188182000Y-92964000D03*
X185682000Y-92964000D03*
X183182000Y-92964000D03*
X180432000Y-92964000D03*
X177932000Y-92964000D03*
X175432000Y-92964000D03*
X172932000Y-92964000D03*
D25*
X147574000Y-96774000D03*
D26*
X150114000Y-96774000D03*
X145034000Y-96774000D03*
M02*
