M48
;DRILL file {KiCad 4.0.7-e2-6376~58~ubuntu16.04.1} date Mon Dec 18 14:19:46 2017
;FORMAT={3:3/ absolute / metric / suppress leading zeros}
FMAT,2
METRIC,TZ
T1C0.500
T2C0.650
T3C0.700
T4C0.800
T5C0.800
T6C1.000
T7C1.016
%
G90
G05
M71
T1
X172900Y-63246
X172932Y-92964
X175400Y-63246
X175432Y-92964
X177900Y-63246
X177932Y-92964
X180400Y-63246
X180432Y-92964
X183150Y-63246
X183182Y-92964
X185650Y-63246
X185682Y-92964
X188150Y-63246
X188182Y-92964
X190682Y-92964
X190900Y-63246
T2
X114046Y-62484
X129540Y-62484
X138684Y-62484
X148082Y-62484
X152146Y-62484
X157734Y-62484
X161798Y-62484
T3
X92202Y-82804
X92202Y-90424
X96012Y-82804
X96012Y-90424
X99822Y-82804
X99822Y-90424
X102616Y-73660
X102616Y-81280
X102616Y-97028
X108204Y-85598
X108204Y-93218
X110236Y-97028
X112014Y-65786
X112014Y-73406
X112522Y-97028
X120142Y-97028
X123190Y-84074
X123190Y-91694
X127254Y-82042
X127254Y-89662
X128016Y-77470
X129010Y-98720
X130740Y-68190
X131150Y-87290
X132820Y-95140
X135636Y-77470
X136630Y-98720
X138360Y-68190
X138770Y-87290
X140440Y-95140
X140930Y-68120
X148550Y-68120
X150630Y-68150
X155940Y-74680
X155940Y-82300
X158250Y-68150
X158420Y-74680
X158420Y-82300
X158760Y-84710
X158760Y-92330
X161280Y-84750
X161280Y-92370
X162230Y-74600
X162230Y-82220
T4
X95758Y-94234
X97282Y-74168
X97282Y-79248
X99822Y-76708
X102870Y-85090
X102870Y-90170
X105410Y-87630
X105758Y-94234
X105918Y-71534
X105918Y-81534
X111420Y-76810
X111420Y-79350
X111420Y-81890
X111420Y-84430
X111420Y-86970
X111420Y-89510
X111420Y-92050
X116840Y-67818
X119040Y-76810
X119040Y-79350
X119040Y-81890
X119040Y-84430
X119040Y-86970
X119040Y-89510
X119040Y-92050
X119380Y-65278
X119380Y-70358
X123016Y-68326
X123698Y-71374
X123698Y-81374
X126652Y-73152
X128016Y-68326
X130382Y-81788
X135382Y-81788
X136652Y-73152
X140230Y-70810
X140230Y-75810
X144430Y-70830
X144560Y-75440
X144560Y-77980
X144560Y-80520
X144560Y-83060
X144560Y-85600
X144560Y-88140
X144560Y-90680
X149430Y-70830
X152180Y-75440
X152180Y-77980
X152180Y-80520
X152180Y-83060
X152180Y-85600
X152180Y-88140
X152180Y-90680
X152960Y-70900
X156120Y-84800
X156120Y-89800
X157960Y-70900
T5
X94996Y-57912
X97790Y-57912
T6
X124660Y-94370
X129740Y-94370
X131560Y-90830
X136640Y-90830
X140320Y-78450
X140320Y-83530
X145034Y-96774
X147574Y-96774
X150114Y-96774
T7
X172974Y-67310
X172974Y-90170
X175514Y-67310
X175514Y-90170
X178054Y-67310
X178054Y-90170
X180594Y-67310
X180594Y-90170
X183134Y-67310
X183134Y-90170
X185674Y-67310
X185674Y-90170
X188214Y-67310
X188214Y-90170
X190754Y-67310
X190754Y-90170
T0
M30
